<mxfile host="app.diagrams.net" modified="2023-03-26T17:31:38.550Z" agent="Mozilla/5.0 (Windows NT 10.0; Win64; x64; rv:109.0) Gecko/20100101 Firefox/111.0 Viewer/97.9.1928.29" etag="r44vis38oOpEMBywg_XH" version="21.1.1" type="device">
  <diagram name="Seite-1" id="1deAHXvnGkB82_bdVQWb">
    <mxGraphModel dx="326" dy="539" grid="1" gridSize="10" guides="1" tooltips="1" connect="1" arrows="1" fold="1" page="1" pageScale="1" pageWidth="827" pageHeight="1169" math="0" shadow="0">
      <root>
        <mxCell id="0" />
        <mxCell id="1" parent="0" />
        <mxCell id="FzuCAiFi6doJxABDljf8-59" value="" style="rounded=0;whiteSpace=wrap;html=1;fillColor=none;" vertex="1" parent="1">
          <mxGeometry x="460.75" y="21" width="142.5" height="351.5" as="geometry" />
        </mxCell>
        <mxCell id="FzuCAiFi6doJxABDljf8-58" value="" style="rounded=0;whiteSpace=wrap;html=1;fillColor=none;" vertex="1" parent="1">
          <mxGeometry x="318.25" y="21" width="142.5" height="351.5" as="geometry" />
        </mxCell>
        <mxCell id="FzuCAiFi6doJxABDljf8-48" value="" style="rounded=0;whiteSpace=wrap;html=1;fillColor=none;" vertex="1" parent="1">
          <mxGeometry x="175.75" y="21" width="142.5" height="351.5" as="geometry" />
        </mxCell>
        <mxCell id="FzuCAiFi6doJxABDljf8-2" value="14 Taktiks" style="text;html=1;strokeColor=none;fillColor=none;align=center;verticalAlign=middle;whiteSpace=wrap;rounded=0;fontSize=12;" vertex="1" parent="1">
          <mxGeometry x="64" y="372" width="90" height="30" as="geometry" />
        </mxCell>
        <mxCell id="FzuCAiFi6doJxABDljf8-6" value="Technique" style="text;html=1;strokeColor=none;fillColor=none;align=center;verticalAlign=middle;whiteSpace=wrap;rounded=0;fontSize=12;" vertex="1" parent="1">
          <mxGeometry x="202" y="372" width="90" height="30" as="geometry" />
        </mxCell>
        <mxCell id="FzuCAiFi6doJxABDljf8-17" value="&lt;span&gt;Tecknike 1&lt;/span&gt;" style="rounded=0;whiteSpace=wrap;html=1;fillColor=#FF9999;fontStyle=0" vertex="1" parent="1">
          <mxGeometry x="200" y="109" width="100" height="30" as="geometry" />
        </mxCell>
        <mxCell id="FzuCAiFi6doJxABDljf8-18" value="..." style="rounded=0;whiteSpace=wrap;html=1;fillColor=none;fontStyle=0" vertex="1" parent="1">
          <mxGeometry x="200" y="160.5" width="100" height="30" as="geometry" />
        </mxCell>
        <mxCell id="FzuCAiFi6doJxABDljf8-19" value="&lt;span&gt;Tecknike n&lt;/span&gt;" style="rounded=0;whiteSpace=wrap;html=1;fillColor=none;fontStyle=0" vertex="1" parent="1">
          <mxGeometry x="199" y="210" width="100" height="30" as="geometry" />
        </mxCell>
        <mxCell id="FzuCAiFi6doJxABDljf8-20" value="Subtecknique" style="text;html=1;strokeColor=none;fillColor=none;align=center;verticalAlign=middle;whiteSpace=wrap;rounded=0;fontSize=12;" vertex="1" parent="1">
          <mxGeometry x="334.5" y="373" width="110" height="30" as="geometry" />
        </mxCell>
        <mxCell id="FzuCAiFi6doJxABDljf8-22" value="&lt;span&gt;Subtecknike 1&lt;/span&gt;" style="rounded=0;whiteSpace=wrap;html=1;fillColor=none;fontStyle=0" vertex="1" parent="1">
          <mxGeometry x="339.5" y="61" width="100" height="30" as="geometry" />
        </mxCell>
        <mxCell id="FzuCAiFi6doJxABDljf8-23" value="&lt;span&gt;...&lt;/span&gt;" style="rounded=0;whiteSpace=wrap;html=1;fillColor=none;fontStyle=0" vertex="1" parent="1">
          <mxGeometry x="339.5" y="111" width="100" height="32" as="geometry" />
        </mxCell>
        <mxCell id="FzuCAiFi6doJxABDljf8-24" value="&lt;span&gt;Subtecknike n&lt;br&gt;&lt;/span&gt;" style="rounded=0;whiteSpace=wrap;html=1;fillColor=#FF6666;fontStyle=0" vertex="1" parent="1">
          <mxGeometry x="339.5" y="160" width="100" height="30" as="geometry" />
        </mxCell>
        <mxCell id="FzuCAiFi6doJxABDljf8-35" value="&lt;span&gt;Beispiele&lt;/span&gt;" style="rounded=0;whiteSpace=wrap;html=1;fillColor=#33FF33;fontStyle=0" vertex="1" parent="1">
          <mxGeometry x="479.5" y="111" width="100.5" height="30" as="geometry" />
        </mxCell>
        <mxCell id="FzuCAiFi6doJxABDljf8-36" value="&lt;span style=&quot;font-size: 10px;&quot;&gt;Härtungmaßnahme&lt;/span&gt;" style="rounded=0;whiteSpace=wrap;html=1;fillColor=#33FF33;fontSize=10;fontStyle=0" vertex="1" parent="1">
          <mxGeometry x="479.5" y="160" width="100.5" height="30" as="geometry" />
        </mxCell>
        <mxCell id="FzuCAiFi6doJxABDljf8-37" value="&lt;span&gt;Erkennung&lt;/span&gt;" style="rounded=0;whiteSpace=wrap;html=1;fillColor=#FF3333;fontStyle=0" vertex="1" parent="1">
          <mxGeometry x="479.5" y="210" width="100.5" height="30" as="geometry" />
        </mxCell>
        <mxCell id="FzuCAiFi6doJxABDljf8-41" value="" style="rounded=0;whiteSpace=wrap;html=1;fillColor=none;" vertex="1" parent="1">
          <mxGeometry x="29" y="21" width="146.25" height="351.5" as="geometry" />
        </mxCell>
        <mxCell id="FzuCAiFi6doJxABDljf8-42" value="&lt;span&gt;Taktit 1&lt;/span&gt;" style="rounded=0;whiteSpace=wrap;html=1;fillColor=none;fontStyle=0" vertex="1" parent="1">
          <mxGeometry x="58" y="121" width="100" height="30" as="geometry" />
        </mxCell>
        <mxCell id="FzuCAiFi6doJxABDljf8-43" value="&lt;span&gt;Taktit 2&lt;br&gt;&lt;/span&gt;" style="rounded=0;whiteSpace=wrap;html=1;fillColor=#FFCCCC;fontStyle=0;fillStyle=solid;" vertex="1" parent="1">
          <mxGeometry x="59" y="160.5" width="100" height="30" as="geometry" />
        </mxCell>
        <mxCell id="FzuCAiFi6doJxABDljf8-44" value="&lt;span&gt;Taktik 14&lt;br&gt;&lt;/span&gt;" style="rounded=0;whiteSpace=wrap;html=1;fillColor=none;fontStyle=0" vertex="1" parent="1">
          <mxGeometry x="58" y="242" width="100" height="30" as="geometry" />
        </mxCell>
        <mxCell id="FzuCAiFi6doJxABDljf8-45" value="&lt;span&gt;...&lt;/span&gt;" style="rounded=0;whiteSpace=wrap;html=1;fillColor=none;fontStyle=0" vertex="1" parent="1">
          <mxGeometry x="59" y="201" width="100" height="30" as="geometry" />
        </mxCell>
        <mxCell id="FzuCAiFi6doJxABDljf8-55" value="" style="shape=curlyBracket;whiteSpace=wrap;html=1;rounded=1;labelPosition=left;verticalLabelPosition=middle;align=right;verticalAlign=middle;size=0.5;fontStyle=0" vertex="1" parent="1">
          <mxGeometry x="166" y="99" width="49" height="152" as="geometry" />
        </mxCell>
        <mxCell id="FzuCAiFi6doJxABDljf8-57" value="" style="shape=curlyBracket;whiteSpace=wrap;html=1;rounded=1;labelPosition=left;verticalLabelPosition=middle;align=right;verticalAlign=middle;size=0.5;" vertex="1" parent="1">
          <mxGeometry x="306" y="49" width="49" height="152" as="geometry" />
        </mxCell>
        <mxCell id="FzuCAiFi6doJxABDljf8-61" value="" style="shape=curlyBracket;whiteSpace=wrap;html=1;rounded=1;labelPosition=left;verticalLabelPosition=middle;align=right;verticalAlign=middle;size=0.5;fontStyle=0" vertex="1" parent="1">
          <mxGeometry x="446.5" y="101.5" width="49" height="152" as="geometry" />
        </mxCell>
        <mxCell id="FzuCAiFi6doJxABDljf8-63" value="Maßnahmen" style="text;html=1;strokeColor=none;fillColor=none;align=center;verticalAlign=middle;whiteSpace=wrap;rounded=0;fontSize=12;" vertex="1" parent="1">
          <mxGeometry x="480" y="372.5" width="110" height="30" as="geometry" />
        </mxCell>
        <mxCell id="FzuCAiFi6doJxABDljf8-64" value="&lt;span&gt;Beispiele&lt;/span&gt;" style="rounded=0;whiteSpace=wrap;html=1;fillColor=#FF3333;fontStyle=0" vertex="1" parent="1">
          <mxGeometry x="479.5" y="111.5" width="100.5" height="30" as="geometry" />
        </mxCell>
        <mxCell id="FzuCAiFi6doJxABDljf8-65" value="&lt;span style=&quot;font-size: 12px;&quot;&gt;Verteidigung&lt;br style=&quot;font-size: 12px;&quot;&gt;&lt;/span&gt;" style="rounded=0;whiteSpace=wrap;html=1;fillColor=#FF3333;fontSize=12;fontStyle=0" vertex="1" parent="1">
          <mxGeometry x="479.5" y="160.5" width="100.5" height="30" as="geometry" />
        </mxCell>
      </root>
    </mxGraphModel>
  </diagram>
</mxfile>
